<mxfile host="app.diagrams.net" agent="Mozilla/5.0 (X11; Linux x86_64; rv:135.0) Gecko/20100101 Firefox/135.0" version="26.0.10">
  <diagram name="Page-1" id="a7904f86-f2b4-8e86-fa97-74104820619b">
    <mxGraphModel dx="1471" dy="1144" grid="1" gridSize="10" guides="1" tooltips="1" connect="1" arrows="1" fold="1" page="1" pageScale="1" pageWidth="1100" pageHeight="850" background="none" math="0" shadow="0">
      <root>
        <mxCell id="0" />
        <mxCell id="1" parent="0" />
        <mxCell id="9smjhB9JRLTvYa0JN-lg-1" value="" style="endArrow=classic;html=1;rounded=0;entryX=1;entryY=0;entryDx=0;entryDy=0;exitX=0;exitY=0;exitDx=0;exitDy=0;" edge="1" parent="1" source="9smjhB9JRLTvYa0JN-lg-3" target="9smjhB9JRLTvYa0JN-lg-8">
          <mxGeometry width="50" height="50" relative="1" as="geometry">
            <mxPoint x="520" y="150" as="sourcePoint" />
            <mxPoint x="180" y="250" as="targetPoint" />
            <Array as="points" />
          </mxGeometry>
        </mxCell>
        <mxCell id="9smjhB9JRLTvYa0JN-lg-2" value="&lt;div style=&quot;box-sizing: border-box; width: 100%; background: rgb(228, 228, 228); padding: 2px;&quot;&gt;site&lt;/div&gt;&lt;table style=&quot;width:100%;font-size:1em;&quot; cellpadding=&quot;2&quot; cellspacing=&quot;0&quot;&gt;&lt;tbody&gt;&lt;tr&gt;&lt;td&gt;PK&lt;br&gt;&lt;/td&gt;&lt;td&gt;id&lt;/td&gt;&lt;/tr&gt;&lt;tr&gt;&lt;td&gt;TEXT&lt;br&gt;TEXT&lt;/td&gt;&lt;td&gt;name&lt;br&gt;location&lt;/td&gt;&lt;/tr&gt;&lt;tr&gt;&lt;td&gt;&lt;br&gt;&lt;/td&gt;&lt;td&gt;&lt;br&gt;&lt;br&gt;&lt;br&gt;&lt;/td&gt;&lt;/tr&gt;&lt;/tbody&gt;&lt;/table&gt;" style="verticalAlign=top;align=left;overflow=fill;html=1;whiteSpace=wrap;" vertex="1" parent="1">
          <mxGeometry x="10" y="230" width="180" height="90" as="geometry" />
        </mxCell>
        <mxCell id="9smjhB9JRLTvYa0JN-lg-3" value="&lt;div style=&quot;box-sizing: border-box; width: 100%; background: rgb(228, 228, 228); padding: 2px;&quot;&gt;project&lt;/div&gt;&lt;table style=&quot;width:100%;font-size:1em;&quot; cellpadding=&quot;2&quot; cellspacing=&quot;0&quot;&gt;&lt;tbody&gt;&lt;tr&gt;&lt;td&gt;PK&lt;/td&gt;&lt;td&gt;id&lt;/td&gt;&lt;/tr&gt;&lt;tr&gt;&lt;td&gt;customer.id&lt;br&gt;site.id &lt;br&gt;&lt;/td&gt;&lt;td&gt;customer_id&lt;br&gt;site_id&lt;/td&gt;&lt;/tr&gt;&lt;tr&gt;&lt;td&gt;TEXT&lt;br&gt;CIPHERTEXT&lt;br&gt;CIPHERTEXT&lt;br&gt;&lt;br&gt;&lt;/td&gt;&lt;td&gt;endpoint&lt;br&gt;access_key_id&lt;br&gt;secret_access_key&lt;br&gt;&lt;br&gt;&lt;/td&gt;&lt;/tr&gt;&lt;/tbody&gt;&lt;/table&gt;" style="verticalAlign=top;align=left;overflow=fill;html=1;whiteSpace=wrap;" vertex="1" parent="1">
          <mxGeometry x="230" y="60" width="210" height="130" as="geometry" />
        </mxCell>
        <mxCell id="9smjhB9JRLTvYa0JN-lg-4" value="" style="endArrow=classic;html=1;rounded=0;entryX=1.017;entryY=0.078;entryDx=0;entryDy=0;entryPerimeter=0;exitX=-0.005;exitY=0.131;exitDx=0;exitDy=0;exitPerimeter=0;" edge="1" parent="1" source="9smjhB9JRLTvYa0JN-lg-3" target="9smjhB9JRLTvYa0JN-lg-2">
          <mxGeometry width="50" height="50" relative="1" as="geometry">
            <mxPoint x="526" y="170" as="sourcePoint" />
            <mxPoint x="570" y="560" as="targetPoint" />
          </mxGeometry>
        </mxCell>
        <mxCell id="9smjhB9JRLTvYa0JN-lg-5" value="" style="endArrow=classic;html=1;rounded=0;exitX=0.006;exitY=0;exitDx=0;exitDy=0;exitPerimeter=0;entryX=1;entryY=0;entryDx=0;entryDy=0;" edge="1" parent="1" source="9smjhB9JRLTvYa0JN-lg-7" target="9smjhB9JRLTvYa0JN-lg-3">
          <mxGeometry width="50" height="50" relative="1" as="geometry">
            <mxPoint x="520" y="610" as="sourcePoint" />
            <mxPoint x="570" y="560" as="targetPoint" />
          </mxGeometry>
        </mxCell>
        <mxCell id="9smjhB9JRLTvYa0JN-lg-7" value="&lt;div style=&quot;box-sizing: border-box; width: 100%; background: rgb(228, 228, 228); padding: 2px;&quot;&gt;bucket&lt;/div&gt;&lt;table style=&quot;width:100%;font-size:1em;&quot; cellpadding=&quot;2&quot; cellspacing=&quot;0&quot;&gt;&lt;tbody&gt;&lt;tr&gt;&lt;td&gt;PK&lt;/td&gt;&lt;td&gt;id&lt;/td&gt;&lt;/tr&gt;&lt;tr&gt;&lt;td&gt;project.id&lt;br&gt;customer_id&lt;br&gt;TEXT&lt;br&gt;BUCKET_TYPE&lt;/td&gt;&lt;td&gt;project_id&lt;br&gt;customer_id&lt;br&gt;name&lt;br&gt;type&lt;/td&gt;&lt;/tr&gt;&lt;tr&gt;&lt;td&gt;&lt;br&gt;&lt;/td&gt;&lt;td&gt;&lt;br&gt;&lt;/td&gt;&lt;/tr&gt;&lt;/tbody&gt;&lt;/table&gt;" style="verticalAlign=top;align=left;overflow=fill;html=1;whiteSpace=wrap;" vertex="1" parent="1">
          <mxGeometry x="490" y="250" width="180" height="110" as="geometry" />
        </mxCell>
        <mxCell id="9smjhB9JRLTvYa0JN-lg-8" value="&lt;div style=&quot;box-sizing: border-box; width: 100%; background: rgb(228, 228, 228); padding: 2px;&quot;&gt;customer&lt;/div&gt;&lt;table style=&quot;width:100%;font-size:1em;&quot; cellpadding=&quot;2&quot; cellspacing=&quot;0&quot;&gt;&lt;tbody&gt;&lt;tr&gt;&lt;td&gt;PK&lt;/td&gt;&lt;td&gt;id&lt;/td&gt;&lt;/tr&gt;&lt;tr&gt;&lt;td&gt;TEXT&lt;/td&gt;&lt;td&gt;name&lt;/td&gt;&lt;/tr&gt;&lt;tr&gt;&lt;td&gt;TEXT&lt;br&gt;INTEGER&lt;br&gt;INTEGER&lt;br&gt;TIMESTAMP&lt;br&gt;TIMESTAMP&lt;/td&gt;&lt;td&gt;price_plan&lt;br&gt;num_users&lt;br&gt;mb_storage&lt;br&gt;contract_start&lt;br&gt;contract_end&lt;/td&gt;&lt;/tr&gt;&lt;/tbody&gt;&lt;/table&gt;" style="verticalAlign=top;align=left;overflow=fill;html=1;whiteSpace=wrap;" vertex="1" parent="1">
          <mxGeometry x="10" y="60" width="180" height="150" as="geometry" />
        </mxCell>
        <mxCell id="9smjhB9JRLTvYa0JN-lg-9" value="&lt;div style=&quot;box-sizing: border-box; width: 100%; background: rgb(228, 228, 228); padding: 2px;&quot;&gt;backup_job&lt;/div&gt;&lt;table style=&quot;width:100%;font-size:1em;&quot; cellpadding=&quot;2&quot; cellspacing=&quot;0&quot;&gt;&lt;tbody&gt;&lt;tr&gt;&lt;td&gt;PK&lt;/td&gt;&lt;td&gt;id&lt;/td&gt;&lt;/tr&gt;&lt;tr&gt;&lt;td&gt;bucket.id&lt;br&gt;bucket.id&lt;br&gt;customer_id&lt;/td&gt;&lt;td&gt;source_bucket&lt;br&gt;destination_bucket&lt;br&gt;customer_id&lt;/td&gt;&lt;/tr&gt;&lt;tr&gt;&lt;td&gt;TEXT&lt;br&gt;TEXT&lt;br&gt;INTEGER&lt;br&gt;TIMESTAMP&lt;br&gt;TIMESTAMP&lt;br&gt;LONGTEXT&lt;/td&gt;&lt;td&gt;name&lt;br&gt;schedule&lt;br&gt;retention_days&lt;br&gt;last_started&lt;br&gt;last_completed&lt;br&gt;status&lt;/td&gt;&lt;/tr&gt;&lt;/tbody&gt;&lt;/table&gt;" style="verticalAlign=top;align=left;overflow=fill;html=1;whiteSpace=wrap;" vertex="1" parent="1">
          <mxGeometry x="720" y="60" width="180" height="180" as="geometry" />
        </mxCell>
        <mxCell id="9smjhB9JRLTvYa0JN-lg-10" value="" style="endArrow=classic;html=1;rounded=0;entryX=1;entryY=0;entryDx=0;entryDy=0;exitX=0;exitY=0;exitDx=0;exitDy=0;" edge="1" parent="1" source="9smjhB9JRLTvYa0JN-lg-9" target="9smjhB9JRLTvYa0JN-lg-7">
          <mxGeometry width="50" height="50" relative="1" as="geometry">
            <mxPoint x="520" y="610" as="sourcePoint" />
            <mxPoint x="570" y="560" as="targetPoint" />
          </mxGeometry>
        </mxCell>
        <mxCell id="9smjhB9JRLTvYa0JN-lg-14" value="" style="edgeStyle=elbowEdgeStyle;elbow=vertical;endArrow=classic;html=1;curved=0;rounded=0;endSize=8;startSize=8;entryX=0.611;entryY=-0.011;entryDx=0;entryDy=0;entryPerimeter=0;exitX=0;exitY=0;exitDx=0;exitDy=0;" edge="1" parent="1" source="9smjhB9JRLTvYa0JN-lg-9">
          <mxGeometry width="50" height="50" relative="1" as="geometry">
            <mxPoint x="703.98" y="135" as="sourcePoint" />
            <mxPoint x="100.00000000000001" y="59.00999999999999" as="targetPoint" />
            <Array as="points">
              <mxPoint x="390.02" y="20" />
            </Array>
          </mxGeometry>
        </mxCell>
        <mxCell id="9smjhB9JRLTvYa0JN-lg-15" value="&lt;div&gt;&lt;br&gt;&lt;/div&gt;&lt;div&gt;&lt;br&gt;&lt;/div&gt;" style="edgeLabel;html=1;align=center;verticalAlign=middle;resizable=0;points=[];" vertex="1" connectable="0" parent="9smjhB9JRLTvYa0JN-lg-14">
          <mxGeometry x="-0.92" y="-3" relative="1" as="geometry">
            <mxPoint as="offset" />
          </mxGeometry>
        </mxCell>
        <mxCell id="9smjhB9JRLTvYa0JN-lg-17" value="&lt;div style=&quot;box-sizing: border-box; width: 100%; background: rgb(228, 228, 228); padding: 2px;&quot;&gt;make_bucket_job&lt;/div&gt;&lt;table style=&quot;width:100%;font-size:1em;&quot; cellpadding=&quot;2&quot; cellspacing=&quot;0&quot;&gt;&lt;tbody&gt;&lt;tr&gt;&lt;td&gt;PK&lt;/td&gt;&lt;td&gt;id&lt;/td&gt;&lt;/tr&gt;&lt;tr&gt;&lt;td&gt;project.id&lt;br&gt;project.id&lt;br&gt;customer.id&lt;/td&gt;&lt;td&gt;source_project&lt;br&gt;destination_project&lt;br&gt;customer_id&lt;/td&gt;&lt;/tr&gt;&lt;tr&gt;&lt;td&gt;TEXT&lt;br&gt;TEXT&lt;br&gt;LONGTEXT&lt;br&gt;TIMESTAMP&lt;br&gt;TIMESTAMP&lt;/td&gt;&lt;td&gt;name&lt;br&gt;schedule&lt;br&gt;status&lt;br&gt;last_started&lt;br&gt;last_completed&lt;/td&gt;&lt;/tr&gt;&lt;/tbody&gt;&lt;/table&gt;" style="verticalAlign=top;align=left;overflow=fill;html=1;whiteSpace=wrap;" vertex="1" parent="1">
          <mxGeometry x="490" y="60" width="180" height="160" as="geometry" />
        </mxCell>
        <mxCell id="9smjhB9JRLTvYa0JN-lg-18" value="" style="endArrow=classic;html=1;rounded=0;entryX=1;entryY=0;entryDx=0;entryDy=0;exitX=0;exitY=0;exitDx=0;exitDy=0;" edge="1" parent="1" source="9smjhB9JRLTvYa0JN-lg-17" target="9smjhB9JRLTvYa0JN-lg-3">
          <mxGeometry width="50" height="50" relative="1" as="geometry">
            <mxPoint x="520" y="500" as="sourcePoint" />
            <mxPoint x="570" y="450" as="targetPoint" />
          </mxGeometry>
        </mxCell>
        <mxCell id="9smjhB9JRLTvYa0JN-lg-19" value="" style="edgeStyle=elbowEdgeStyle;elbow=vertical;endArrow=classic;html=1;curved=0;rounded=0;endSize=8;startSize=8;entryX=0.5;entryY=0;entryDx=0;entryDy=0;" edge="1" parent="1" target="9smjhB9JRLTvYa0JN-lg-8">
          <mxGeometry width="50" height="50" relative="1" as="geometry">
            <mxPoint x="490" y="60" as="sourcePoint" />
            <mxPoint x="110.00000000000001" y="69.00999999999999" as="targetPoint" />
            <Array as="points">
              <mxPoint x="400.02" y="30" />
            </Array>
          </mxGeometry>
        </mxCell>
        <mxCell id="9smjhB9JRLTvYa0JN-lg-20" value="&lt;div&gt;&lt;br&gt;&lt;/div&gt;&lt;div&gt;&lt;br&gt;&lt;/div&gt;" style="edgeLabel;html=1;align=center;verticalAlign=middle;resizable=0;points=[];" vertex="1" connectable="0" parent="9smjhB9JRLTvYa0JN-lg-19">
          <mxGeometry x="-0.92" y="-3" relative="1" as="geometry">
            <mxPoint as="offset" />
          </mxGeometry>
        </mxCell>
        <mxCell id="9smjhB9JRLTvYa0JN-lg-22" value="&lt;div style=&quot;box-sizing: border-box; width: 100%; background: rgb(228, 228, 228); padding: 2px;&quot;&gt;db_backup_job&lt;/div&gt;&lt;table style=&quot;width:100%;font-size:1em;&quot; cellpadding=&quot;2&quot; cellspacing=&quot;0&quot;&gt;&lt;tbody&gt;&lt;tr&gt;&lt;td&gt;PK&lt;/td&gt;&lt;td&gt;id&lt;/td&gt;&lt;/tr&gt;&lt;tr&gt;&lt;td&gt;bucket.id&lt;br&gt;customer_id&lt;/td&gt;&lt;td&gt;destination_bucket&lt;br&gt;customer_id&lt;/td&gt;&lt;/tr&gt;&lt;tr&gt;&lt;td&gt;TEXT&lt;br&gt;TEXT&lt;br&gt;TEXT&lt;br&gt;TEXT&lt;br&gt;TEXT&lt;br&gt;CIPHERTEXT&lt;br&gt;INTEGER&lt;br&gt;TIMESTAMP&lt;br&gt;TIMESTAMP&lt;br&gt;LONGTEXT&lt;/td&gt;&lt;td&gt;name&lt;br&gt;schedule&lt;br&gt;db_host&lt;br&gt;db_name&lt;br&gt;db_user&lt;br&gt;db_password&lt;br&gt;retention_days&lt;br&gt;last_started&lt;br&gt;last_completed&lt;br&gt;status&lt;/td&gt;&lt;/tr&gt;&lt;/tbody&gt;&lt;/table&gt;" style="verticalAlign=top;align=left;overflow=fill;html=1;whiteSpace=wrap;" vertex="1" parent="1">
          <mxGeometry x="720" y="270" width="180" height="230" as="geometry" />
        </mxCell>
        <mxCell id="9smjhB9JRLTvYa0JN-lg-23" value="" style="endArrow=classic;html=1;rounded=0;entryX=1.006;entryY=0.16;entryDx=0;entryDy=0;entryPerimeter=0;exitX=0;exitY=0;exitDx=0;exitDy=0;" edge="1" parent="1" source="9smjhB9JRLTvYa0JN-lg-22" target="9smjhB9JRLTvYa0JN-lg-7">
          <mxGeometry width="50" height="50" relative="1" as="geometry">
            <mxPoint x="520" y="500" as="sourcePoint" />
            <mxPoint x="570" y="450" as="targetPoint" />
          </mxGeometry>
        </mxCell>
        <mxCell id="9smjhB9JRLTvYa0JN-lg-28" style="edgeStyle=orthogonalEdgeStyle;rounded=0;orthogonalLoop=1;jettySize=auto;html=1;exitX=1;exitY=0;exitDx=0;exitDy=0;entryX=0.5;entryY=0;entryDx=0;entryDy=0;" edge="1" parent="1" source="9smjhB9JRLTvYa0JN-lg-22" target="9smjhB9JRLTvYa0JN-lg-8">
          <mxGeometry relative="1" as="geometry">
            <Array as="points">
              <mxPoint x="920" y="270" />
              <mxPoint x="920" y="10" />
              <mxPoint x="100" y="10" />
            </Array>
          </mxGeometry>
        </mxCell>
        <mxCell id="9smjhB9JRLTvYa0JN-lg-30" value="&lt;p style=&quot;margin: 4px 0px 0px; text-align: center; text-decoration: underline;&quot;&gt;&lt;b&gt;BUCKET_TYPE: enum[TEXT]&lt;/b&gt;&lt;/p&gt;&lt;hr size=&quot;1&quot; style=&quot;border-style:solid;&quot;&gt;&lt;p style=&quot;margin:0px;margin-left:8px;&quot;&gt;primary&lt;br&gt;user&lt;/p&gt;&lt;p style=&quot;margin:0px;margin-left:8px;&quot;&gt;project&lt;/p&gt;&lt;p style=&quot;margin:0px;margin-left:8px;&quot;&gt;primary_mirror&lt;/p&gt;&lt;p style=&quot;margin:0px;margin-left:8px;&quot;&gt;user_mirror&lt;/p&gt;&lt;p style=&quot;margin:0px;margin-left:8px;&quot;&gt;project_mirror&lt;/p&gt;" style="verticalAlign=top;align=left;overflow=fill;html=1;whiteSpace=wrap;" vertex="1" parent="1">
          <mxGeometry x="20" y="440" width="200" height="130" as="geometry" />
        </mxCell>
        <mxCell id="9smjhB9JRLTvYa0JN-lg-31" value="Use" style="endArrow=open;endSize=12;dashed=1;html=1;rounded=0;exitX=0;exitY=1;exitDx=0;exitDy=0;entryX=1;entryY=0;entryDx=0;entryDy=0;" edge="1" parent="1" source="9smjhB9JRLTvYa0JN-lg-7" target="9smjhB9JRLTvYa0JN-lg-30">
          <mxGeometry width="160" relative="1" as="geometry">
            <mxPoint x="470" y="470" as="sourcePoint" />
            <mxPoint x="630" y="470" as="targetPoint" />
          </mxGeometry>
        </mxCell>
        <mxCell id="9smjhB9JRLTvYa0JN-lg-32" value="&lt;div style=&quot;box-sizing: border-box; width: 100%; background: rgb(228, 228, 228); padding: 2px;&quot;&gt;agent&lt;/div&gt;&lt;table style=&quot;width:100%;font-size:1em;&quot; cellpadding=&quot;2&quot; cellspacing=&quot;0&quot;&gt;&lt;tbody&gt;&lt;tr&gt;&lt;td&gt;PK&lt;/td&gt;&lt;td&gt;id&lt;/td&gt;&lt;/tr&gt;&lt;tr&gt;&lt;td&gt;TEXT&lt;br&gt;TEXT&lt;/td&gt;&lt;td&gt;name&lt;br&gt;location&lt;/td&gt;&lt;/tr&gt;&lt;tr&gt;&lt;td&gt;LONGTEXT&lt;/td&gt;&lt;td&gt;public_key&lt;/td&gt;&lt;/tr&gt;&lt;/tbody&gt;&lt;/table&gt;" style="verticalAlign=top;align=left;overflow=fill;html=1;whiteSpace=wrap;" vertex="1" parent="1">
          <mxGeometry x="245" y="230" width="180" height="90" as="geometry" />
        </mxCell>
        <mxCell id="9smjhB9JRLTvYa0JN-lg-33" value="&lt;p style=&quot;margin: 4px 0px 0px; text-align: center; text-decoration: underline;&quot;&gt;&lt;b&gt;CIPHERTEXT: TEXT&lt;/b&gt;&lt;/p&gt;&lt;hr size=&quot;1&quot; style=&quot;border-style:solid;&quot;&gt;age encrypted text" style="verticalAlign=top;align=left;overflow=fill;html=1;whiteSpace=wrap;" vertex="1" parent="1">
          <mxGeometry x="300" y="440" width="200" height="60" as="geometry" />
        </mxCell>
        <mxCell id="9smjhB9JRLTvYa0JN-lg-34" value="Use" style="endArrow=open;endSize=12;dashed=1;html=1;rounded=0;exitX=-0.011;exitY=0.67;exitDx=0;exitDy=0;exitPerimeter=0;" edge="1" parent="1" source="9smjhB9JRLTvYa0JN-lg-22" target="9smjhB9JRLTvYa0JN-lg-33">
          <mxGeometry width="160" relative="1" as="geometry">
            <mxPoint x="500" y="370" as="sourcePoint" />
            <mxPoint x="230" y="450" as="targetPoint" />
          </mxGeometry>
        </mxCell>
        <mxCell id="9smjhB9JRLTvYa0JN-lg-35" value="Use" style="endArrow=open;endSize=12;dashed=1;html=1;rounded=0;exitX=1;exitY=1;exitDx=0;exitDy=0;entryX=0.92;entryY=-0.05;entryDx=0;entryDy=0;entryPerimeter=0;" edge="1" parent="1" source="9smjhB9JRLTvYa0JN-lg-3" target="9smjhB9JRLTvYa0JN-lg-33">
          <mxGeometry width="160" relative="1" as="geometry">
            <mxPoint x="728" y="434" as="sourcePoint" />
            <mxPoint x="510" y="466" as="targetPoint" />
          </mxGeometry>
        </mxCell>
      </root>
    </mxGraphModel>
  </diagram>
</mxfile>
